<?xml version="1.0" encoding="utf-8"?>
<!-- Generator: Adobe Illustrator 24.1.2, SVG Export Plug-In . SVG Version: 6.00 Build 0)  -->
<svg version="1.1" id="Capa_1" xmlns="http://www.w3.org/2000/svg" xmlns:xlink="http://www.w3.org/1999/xlink" x="0px" y="0px"
	 viewBox="0 0 448 367" style="enable-background:new 0 0 448 367;" xml:space="preserve">
<style type="text/css">
	.st0{opacity:0.62;fill:#FFFFFF;}
	.st1{opacity:0.32;fill:#FFFFFF;}
</style>
<path class="st0" d="M416,288H32c-17.7,0-32,11.9-32,26.7s14.3,26.7,32,26.7h384c17.7,0,32-11.9,32-26.7S433.7,288,416,288z
	 M416,21.3H32c-17.7,0-32,12-32,26.7c0,14.8,14.3,26.7,32,26.7h384c17.7,0,32-11.9,32-26.7C448,33.3,433.7,21.3,416,21.3z"/>
<path class="st1" d="M448,181.3c0,14.8-14.3,26.7-32,26.7H32c-17.7,0-32-11.9-32-26.7s14.3-26.7,32-26.7h384
	C433.7,154.7,448,166.6,448,181.3z"/>
</svg>
